# Blender v2.93.1 OBJ File: 'floor.blend'
# www.blender.org
mtllib floor.mtl
o Cube
v 10.000002 0.100000 -10.000002
v 10.000002 -0.100000 -10.000002
v 10.000002 0.100000 10.000002
v 10.000002 -0.100000 10.000002
v -10.000002 0.100000 -10.000002
v -10.000002 -0.100000 -10.000002
v -10.000002 0.100000 10.000002
v -10.000002 -0.100000 10.000002
vt 0.008647 0.500000
vt 0.008647 0.008647
vt 0.500000 0.008647
vt 0.500000 0.500000
vt 0.508575 0.500064
vt 0.508575 0.008711
vt 0.500064 0.000071
vt 0.008711 0.000071
vt 0.008583 0.999929
vt 0.008583 0.508575
vt 0.499936 0.508575
vt 0.499936 0.999928
vt 0.000071 0.008583
vt 0.000071 0.499936
vn 0.0000 1.0000 0.0000
vn 0.0000 0.0000 1.0000
vn -1.0000 0.0000 0.0000
vn 0.0000 -1.0000 0.0000
vn 1.0000 0.0000 0.0000
vn 0.0000 0.0000 -1.0000
usemtl Material
s off
f 1/1/1 5/2/1 7/3/1 3/4/1
f 4/5/2 3/4/2 7/3/2 8/6/2
f 8/7/3 7/3/3 5/2/3 6/8/3
f 6/9/4 2/10/4 4/11/4 8/12/4
f 2/10/5 1/1/5 3/4/5 4/11/5
f 6/13/6 5/2/6 1/1/6 2/14/6
